<svg width="1266" height="804" viewBox="0 0 1266 804" fill="none" xmlns="http://www.w3.org/2000/svg">
<mask id="mask0_1_136" style="mask-type:alpha" maskUnits="userSpaceOnUse" x="0" y="-110" width="1266" height="914">
<rect y="-110" width="1266" height="914" fill="url(#paint0_linear_1_136)"/>
</mask>
<g mask="url(#mask0_1_136)">
<circle cx="40.5" cy="51.5" r="3.5" fill="#C8C8C8"/>
<circle cx="119.5" cy="51.5" r="3.5" fill="#C8C8C8"/>
<circle cx="198.5" cy="51.5" r="3.5" fill="#C8C8C8"/>
<circle cx="277.5" cy="51.5" r="3.5" fill="#C8C8C8"/>
<circle cx="356.5" cy="51.5" r="3.5" fill="#C8C8C8"/>
<circle cx="435.5" cy="51.5" r="3.5" fill="#C8C8C8"/>
<circle cx="514.5" cy="51.5" r="3.5" fill="#C8C8C8"/>
<circle cx="593.5" cy="51.5" r="3.5" fill="#C8C8C8"/>
<circle cx="672.5" cy="51.5" r="3.5" fill="#C8C8C8"/>
<circle cx="751.5" cy="51.5" r="3.5" fill="#C8C8C8"/>
<circle cx="830.5" cy="51.5" r="3.5" fill="#C8C8C8"/>
<circle cx="909.5" cy="51.5" r="3.5" fill="#C8C8C8"/>
<circle cx="988.5" cy="51.5" r="3.5" fill="#C8C8C8"/>
<circle cx="1067.5" cy="51.5" r="3.5" fill="#C8C8C8"/>
<circle cx="1146.5" cy="51.5" r="3.5" fill="#C8C8C8"/>
<circle cx="1225.5" cy="51.5" r="3.5" fill="#C8C8C8"/>
<circle cx="40.5" cy="130.5" r="3.5" fill="#C8C8C8"/>
<circle cx="119.5" cy="130.5" r="3.5" fill="#C8C8C8"/>
<circle cx="198.5" cy="130.5" r="3.5" fill="#C8C8C8"/>
<circle cx="277.5" cy="130.5" r="3.5" fill="#C8C8C8"/>
<circle cx="356.5" cy="130.5" r="3.5" fill="#C8C8C8"/>
<circle cx="435.5" cy="130.5" r="3.5" fill="#C8C8C8"/>
<circle cx="514.5" cy="130.5" r="3.5" fill="#C8C8C8"/>
<circle cx="593.5" cy="130.5" r="3.5" fill="#C8C8C8"/>
<circle cx="672.5" cy="130.5" r="3.5" fill="#C8C8C8"/>
<circle cx="751.5" cy="130.5" r="3.5" fill="#C8C8C8"/>
<circle cx="830.5" cy="130.5" r="3.5" fill="#C8C8C8"/>
<circle cx="909.5" cy="130.5" r="3.5" fill="#C8C8C8"/>
<circle cx="988.5" cy="130.5" r="3.5" fill="#C8C8C8"/>
<circle cx="1067.5" cy="130.5" r="3.5" fill="#C8C8C8"/>
<circle cx="1146.5" cy="130.5" r="3.5" fill="#C8C8C8"/>
<circle cx="1225.5" cy="130.5" r="3.5" fill="#C8C8C8"/>
<circle cx="40.5" cy="209.5" r="3.5" fill="#C8C8C8"/>
<circle cx="119.5" cy="209.5" r="3.5" fill="#C8C8C8"/>
<circle cx="198.5" cy="209.5" r="3.5" fill="#C8C8C8"/>
<circle cx="277.5" cy="209.5" r="3.5" fill="#C8C8C8"/>
<circle cx="356.5" cy="209.5" r="3.5" fill="#C8C8C8"/>
<circle cx="435.5" cy="209.5" r="3.5" fill="#C8C8C8"/>
<circle cx="514.5" cy="209.5" r="3.5" fill="#C8C8C8"/>
<circle cx="593.5" cy="209.5" r="3.5" fill="#C8C8C8"/>
<circle cx="672.5" cy="209.5" r="3.5" fill="#C8C8C8"/>
<circle cx="751.5" cy="209.5" r="3.5" fill="#C8C8C8"/>
<circle cx="830.5" cy="209.5" r="3.5" fill="#C8C8C8"/>
<circle cx="909.5" cy="209.5" r="3.5" fill="#C8C8C8"/>
<circle cx="988.5" cy="209.5" r="3.5" fill="#C8C8C8"/>
<circle cx="1067.5" cy="209.5" r="3.5" fill="#C8C8C8"/>
<circle cx="1146.5" cy="209.5" r="3.5" fill="#C8C8C8"/>
<circle cx="1225.5" cy="209.5" r="3.5" fill="#C8C8C8"/>
<circle cx="40.5" cy="288.5" r="3.5" fill="#C8C8C8"/>
<circle cx="119.5" cy="288.5" r="3.5" fill="#C8C8C8"/>
<circle cx="198.5" cy="288.5" r="3.5" fill="#C8C8C8"/>
<circle cx="277.5" cy="288.5" r="3.5" fill="#C8C8C8"/>
<circle cx="356.5" cy="288.5" r="3.5" fill="#C8C8C8"/>
<circle cx="435.5" cy="288.5" r="3.5" fill="#C8C8C8"/>
<circle cx="514.5" cy="288.5" r="3.5" fill="#C8C8C8"/>
<circle cx="593.5" cy="288.5" r="3.5" fill="#C8C8C8"/>
<circle cx="672.5" cy="288.5" r="3.5" fill="#C8C8C8"/>
<circle cx="751.5" cy="288.5" r="3.5" fill="#C8C8C8"/>
<circle cx="830.5" cy="288.5" r="3.5" fill="#C8C8C8"/>
<circle cx="909.5" cy="288.5" r="3.5" fill="#C8C8C8"/>
<circle cx="988.5" cy="288.5" r="3.5" fill="#C8C8C8"/>
<circle cx="1067.5" cy="288.5" r="3.5" fill="#C8C8C8"/>
<circle cx="1146.5" cy="288.5" r="3.5" fill="#C8C8C8"/>
<circle cx="1225.5" cy="288.5" r="3.5" fill="#C8C8C8"/>
<circle cx="40.5" cy="367.5" r="3.5" fill="#C8C8C8"/>
<circle cx="119.5" cy="367.5" r="3.5" fill="#C8C8C8"/>
<circle cx="198.5" cy="367.5" r="3.5" fill="#C8C8C8"/>
<circle cx="277.5" cy="367.5" r="3.5" fill="#C8C8C8"/>
<circle cx="356.5" cy="367.5" r="3.5" fill="#C8C8C8"/>
<circle cx="435.5" cy="367.5" r="3.5" fill="#C8C8C8"/>
<circle cx="514.5" cy="367.5" r="3.5" fill="#C8C8C8"/>
<circle cx="593.5" cy="367.5" r="3.5" fill="#C8C8C8"/>
<circle cx="672.5" cy="367.5" r="3.5" fill="#C8C8C8"/>
<circle cx="751.5" cy="367.5" r="3.5" fill="#C8C8C8"/>
<circle cx="830.5" cy="367.5" r="3.5" fill="#C8C8C8"/>
<circle cx="909.5" cy="367.5" r="3.5" fill="#C8C8C8"/>
<circle cx="988.5" cy="367.5" r="3.5" fill="#C8C8C8"/>
<circle cx="1067.5" cy="367.5" r="3.5" fill="#C8C8C8"/>
<circle cx="1146.5" cy="367.5" r="3.5" fill="#C8C8C8"/>
<circle cx="1225.5" cy="367.5" r="3.5" fill="#C8C8C8"/>
<circle cx="40.5" cy="446.5" r="3.5" fill="#C8C8C8"/>
<circle cx="119.5" cy="446.5" r="3.5" fill="#C8C8C8"/>
<circle cx="198.5" cy="446.5" r="3.5" fill="#C8C8C8"/>
<circle cx="277.5" cy="446.5" r="3.5" fill="#C8C8C8"/>
<circle cx="356.5" cy="446.5" r="3.5" fill="#C8C8C8"/>
<circle cx="435.5" cy="446.5" r="3.5" fill="#C8C8C8"/>
<circle cx="514.5" cy="446.5" r="3.5" fill="#C8C8C8"/>
<circle cx="593.5" cy="446.5" r="3.5" fill="#C8C8C8"/>
<circle cx="672.5" cy="446.5" r="3.5" fill="#C8C8C8"/>
<circle cx="751.5" cy="446.5" r="3.5" fill="#C8C8C8"/>
<circle cx="830.5" cy="446.5" r="3.5" fill="#C8C8C8"/>
<circle cx="909.5" cy="446.5" r="3.5" fill="#C8C8C8"/>
<circle cx="988.5" cy="446.5" r="3.5" fill="#C8C8C8"/>
<circle cx="1067.5" cy="446.5" r="3.5" fill="#C8C8C8"/>
<circle cx="1146.5" cy="446.5" r="3.5" fill="#C8C8C8"/>
<circle cx="1225.5" cy="446.5" r="3.5" fill="#C8C8C8"/>
<circle cx="40.5" cy="525.5" r="3.5" fill="#C8C8C8"/>
<circle cx="119.5" cy="525.5" r="3.5" fill="#C8C8C8"/>
<circle cx="198.5" cy="525.5" r="3.5" fill="#C8C8C8"/>
<circle cx="277.5" cy="525.5" r="3.5" fill="#C8C8C8"/>
<circle cx="356.5" cy="525.5" r="3.5" fill="#C8C8C8"/>
<circle cx="435.5" cy="525.5" r="3.5" fill="#C8C8C8"/>
<circle cx="514.5" cy="525.5" r="3.5" fill="#C8C8C8"/>
<circle cx="593.5" cy="525.5" r="3.5" fill="#C8C8C8"/>
<circle cx="672.5" cy="525.5" r="3.5" fill="#C8C8C8"/>
<circle cx="751.5" cy="525.5" r="3.5" fill="#C8C8C8"/>
<circle cx="830.5" cy="525.5" r="3.5" fill="#C8C8C8"/>
<circle cx="909.5" cy="525.5" r="3.5" fill="#C8C8C8"/>
<circle cx="988.5" cy="525.5" r="3.5" fill="#C8C8C8"/>
<circle cx="1067.5" cy="525.5" r="3.5" fill="#C8C8C8"/>
<circle cx="1146.5" cy="525.5" r="3.5" fill="#C8C8C8"/>
<circle cx="1225.5" cy="525.5" r="3.5" fill="#C8C8C8"/>
<circle cx="40.5" cy="604.5" r="3.5" fill="#C8C8C8"/>
<circle cx="119.5" cy="604.5" r="3.5" fill="#C8C8C8"/>
<circle cx="198.5" cy="604.5" r="3.5" fill="#C8C8C8"/>
<circle cx="277.5" cy="604.5" r="3.5" fill="#C8C8C8"/>
<circle cx="356.5" cy="604.5" r="3.5" fill="#C8C8C8"/>
<circle cx="435.5" cy="604.5" r="3.5" fill="#C8C8C8"/>
<circle cx="514.5" cy="604.5" r="3.5" fill="#C8C8C8"/>
<circle cx="593.5" cy="604.5" r="3.5" fill="#C8C8C8"/>
<circle cx="672.5" cy="604.5" r="3.5" fill="#C8C8C8"/>
<circle cx="751.5" cy="604.5" r="3.5" fill="#C8C8C8"/>
<circle cx="830.5" cy="604.5" r="3.5" fill="#C8C8C8"/>
<circle cx="909.5" cy="604.5" r="3.5" fill="#C8C8C8"/>
<circle cx="988.5" cy="604.5" r="3.5" fill="#C8C8C8"/>
<circle cx="1067.5" cy="604.5" r="3.5" fill="#C8C8C8"/>
<circle cx="1146.5" cy="604.5" r="3.5" fill="#C8C8C8"/>
<circle cx="1225.5" cy="604.5" r="3.5" fill="#C8C8C8"/>
</g>
<defs>
<linearGradient id="paint0_linear_1_136" x1="633" y1="-110" x2="633" y2="804" gradientUnits="userSpaceOnUse">
<stop stop-color="#D9D9D9" stop-opacity="0"/>
<stop offset="0.536458" stop-color="#A81717"/>
<stop offset="1" stop-color="#D9D9D9" stop-opacity="0"/>
</linearGradient>
</defs>
</svg>
