<svg width="35" height="35" viewBox="0 0 35 35" fill="none" xmlns="http://www.w3.org/2000/svg">
<g clip-path="url(#clip0_1_335)">
<path d="M10.5921 0C4.75852 0 0 4.75852 0 10.5921V24.4079C0 30.2407 4.75835 35 10.5921 35H24.4079C30.2409 35 35 30.2409 35 24.4079V10.5921C35 4.75835 30.2407 0 24.4079 0H10.5921ZM10.5921 2.76316H24.4079C28.7472 2.76316 32.2368 6.25191 32.2368 10.5921V24.4079C32.2368 28.747 28.747 32.2368 24.4079 32.2368H10.5921C6.25191 32.2368 2.76316 28.7472 2.76316 24.4079V10.5921C2.76316 6.25175 6.25175 2.76316 10.5921 2.76316ZM26.7105 6.44737C25.6928 6.44737 24.8684 7.27171 24.8684 8.28947C24.8684 9.30724 25.6928 10.1316 26.7105 10.1316C27.7283 10.1316 28.5526 9.30724 28.5526 8.28947C28.5526 7.27171 27.7283 6.44737 26.7105 6.44737ZM17.5 8.28947C12.4298 8.28947 8.28947 12.4298 8.28947 17.5C8.28947 22.5702 12.4298 26.7105 17.5 26.7105C22.5702 26.7105 26.7105 22.5702 26.7105 17.5C26.7105 12.4298 22.5702 8.28947 17.5 8.28947ZM17.5 11.0526C21.0766 11.0526 23.9474 13.9234 23.9474 17.5C23.9474 21.0766 21.0766 23.9474 17.5 23.9474C13.9234 23.9474 11.0526 21.0766 11.0526 17.5C11.0526 13.9234 13.9234 11.0526 17.5 11.0526Z" fill="#2A2A27"/>
</g>
<defs>
<clipPath id="clip0_1_335">
<rect width="35" height="35" fill="white"/>
</clipPath>
</defs>
</svg>
