<svg width="36" height="35" viewBox="0 0 36 35" fill="none" xmlns="http://www.w3.org/2000/svg">
<path d="M25.5288 35H10.4711C9.13995 35 7.86329 34.4469 6.922 33.4623C5.98071 32.4777 5.4519 31.1424 5.4519 29.75V5.25C5.4519 3.85761 5.98071 2.52226 6.922 1.53769C7.86329 0.553124 9.13995 0 10.4711 0H21.4967C21.9356 0.00193309 22.3562 0.184198 22.6679 0.5075L30.0629 8.2425C30.372 8.56846 30.5462 9.0084 30.5481 9.4675V29.75C30.5481 31.1424 30.0192 32.4777 29.078 33.4623C28.1367 34.4469 26.86 35 25.5288 35Z" fill="#F44336"/>
<path d="M29.3769 10.045H23.3538C22.6882 10.045 22.0499 9.76846 21.5792 9.27618C21.1086 8.78389 20.8442 8.11621 20.8442 7.42002V1.12002C20.8435 0.929099 20.897 0.742265 20.9981 0.583278C21.0992 0.42429 21.2431 0.300332 21.4117 0.227167C21.5803 0.154002 21.7659 0.134935 21.9449 0.172392C22.1239 0.209849 22.2882 0.302137 22.4169 0.43752L30.0294 8.40002C30.1588 8.53464 30.247 8.70648 30.2829 8.8937C30.3187 9.08091 30.3004 9.27503 30.2305 9.45138C30.1605 9.62772 30.042 9.77833 29.89 9.88403C29.738 9.98974 29.5594 10.0458 29.3769 10.045Z" fill="#FF8A80"/>
<path d="M11.1237 29.9775C11.0077 29.9951 10.8894 29.9842 10.7782 29.9455C10.667 29.9069 10.5659 29.8417 10.4831 29.755C10.4002 29.6683 10.3379 29.5626 10.3009 29.4463C10.264 29.33 10.2535 29.2063 10.2704 29.085V23.9575C10.2541 23.8378 10.2644 23.7159 10.3005 23.6011C10.3365 23.4863 10.3973 23.3817 10.4782 23.2954C10.559 23.2091 10.6578 23.1434 10.7669 23.1035C10.8759 23.0635 10.9922 23.0504 11.1069 23.065C11.2098 23.0529 11.314 23.0631 11.413 23.095C11.5119 23.1269 11.6035 23.1799 11.682 23.2505C11.7606 23.3211 11.8243 23.4079 11.8693 23.5055C11.9143 23.603 11.9395 23.7093 11.9435 23.8175C12.0784 23.5718 12.283 23.3761 12.529 23.2575C12.7924 23.1146 13.0856 23.0424 13.3823 23.0475C13.7608 23.042 14.1328 23.1514 14.4531 23.3625C14.7687 23.5829 15.0182 23.8923 15.1725 24.255C15.3497 24.6893 15.441 25.1566 15.441 25.6287C15.441 26.1009 15.3497 26.5682 15.1725 27.0025C14.9444 27.4887 14.5455 27.864 14.0591 28.0498C13.5728 28.2357 13.0366 28.2179 12.5625 28C12.3253 27.884 12.1228 27.7025 11.9769 27.475V29.0675C11.9866 29.188 11.9723 29.3094 11.9348 29.4238C11.8974 29.5383 11.8377 29.6434 11.7594 29.7325C11.6745 29.8157 11.5745 29.8803 11.4653 29.9224C11.3561 29.9645 11.2399 29.9832 11.1237 29.9775ZM12.7967 26.8975C12.9186 26.8989 13.0392 26.8713 13.1494 26.8167C13.2595 26.7621 13.3563 26.682 13.4325 26.5825C13.619 26.3017 13.7022 25.9599 13.6667 25.62C13.7007 25.2802 13.6176 24.9389 13.4325 24.6575C13.3532 24.563 13.2553 24.4876 13.1456 24.4362C13.0359 24.3849 12.9169 24.3589 12.7967 24.36C12.6739 24.3575 12.552 24.3828 12.4394 24.4342C12.3268 24.4855 12.2261 24.5617 12.1442 24.6575C11.9678 24.943 11.8856 25.281 11.91 25.62C11.883 25.9592 11.9655 26.2981 12.1442 26.5825C12.2271 26.6919 12.3348 26.7781 12.4574 26.8331C12.5801 26.8881 12.714 26.9102 12.8469 26.8975H12.7967Z" fill="#FFEBEE"/>
<path d="M18.2844 28.1925C17.9124 28.2071 17.5449 28.1034 17.2304 27.895C16.9098 27.6757 16.6547 27.3664 16.4942 27.0025C16.317 26.5682 16.2257 26.1009 16.2257 25.6288C16.2257 25.1566 16.317 24.6893 16.4942 24.255C16.6547 23.8911 16.9098 23.5819 17.2304 23.3625C17.5434 23.149 17.9108 23.0392 18.2844 23.0475C18.5755 23.0446 18.8628 23.1168 19.121 23.2575C19.3522 23.3672 19.5535 23.5357 19.7065 23.7475V21.84C19.6897 21.7187 19.7002 21.595 19.7371 21.4787C19.774 21.3623 19.8364 21.2567 19.9192 21.17C20.0021 21.0833 20.1031 21.0181 20.2144 20.9795C20.3256 20.9408 20.4438 20.9299 20.5598 20.9475C20.6724 20.9388 20.7855 20.9545 20.892 20.9937C20.9986 21.0328 21.0962 21.0945 21.1788 21.175C21.2571 21.2641 21.3168 21.3692 21.3542 21.4837C21.3917 21.5981 21.406 21.7195 21.3963 21.84V27.2825C21.4141 27.5146 21.343 27.7445 21.1987 27.9217C21.0543 28.0989 20.8486 28.2089 20.6267 28.2275C20.5169 28.2367 20.4064 28.2232 20.3015 28.1877C20.1966 28.1522 20.0995 28.0955 20.0156 28.0207C19.8462 27.8698 19.741 27.6546 19.7233 27.4225C19.5945 27.667 19.3955 27.8629 19.1544 27.9825C18.8844 28.1235 18.5862 28.1955 18.2844 28.1925ZM18.8365 26.8975C18.9584 26.8989 19.079 26.8713 19.1892 26.8167C19.2993 26.7621 19.3961 26.682 19.4723 26.5825C19.6661 26.3048 19.7555 25.9622 19.7233 25.62C19.7524 25.2781 19.6633 24.9366 19.4723 24.6575C19.393 24.5631 19.2951 24.4876 19.1854 24.4363C19.0757 24.3849 18.9567 24.3589 18.8365 24.36C18.7162 24.3577 18.5968 24.3832 18.4869 24.4346C18.3771 24.486 18.2794 24.5621 18.2008 24.6575C18.0098 24.9366 17.9207 25.2781 17.9498 25.62C17.9176 25.9622 18.007 26.3048 18.2008 26.5825C18.2752 26.6841 18.3717 26.7657 18.4822 26.8204C18.5928 26.8752 18.7143 26.9016 18.8365 26.8975Z" fill="#FFEBEE"/>
<path d="M23.8892 28.175C23.7739 28.189 23.6571 28.1756 23.5474 28.1357C23.4378 28.0958 23.3382 28.0305 23.2562 27.9446C23.1741 27.8588 23.1117 27.7546 23.0735 27.64C23.0354 27.5253 23.0225 27.4031 23.0359 27.2825V24.5H22.7849C22.6976 24.5144 22.6082 24.5073 22.524 24.4792C22.4397 24.4512 22.3628 24.403 22.2995 24.3384C22.2362 24.2739 22.1881 24.1947 22.1591 24.1074C22.1301 24.02 22.121 23.9267 22.1324 23.835C22.1324 23.3975 22.3499 23.1875 22.7849 23.1875H23.0192C23.0119 22.9068 23.0584 22.6275 23.1562 22.366C23.2539 22.1045 23.4007 21.8661 23.588 21.665C24.0197 21.2816 24.5614 21.0599 25.1272 21.035H25.4117C25.5674 20.9698 25.7411 20.9698 25.8969 21.035C26.0098 21.1023 26.098 21.207 26.1478 21.3325C26.1726 21.4595 26.1726 21.5905 26.1478 21.7175C26.1285 21.8409 26.0763 21.9562 25.9972 22.05C25.9229 22.1477 25.8146 22.2106 25.6961 22.225H25.5622C25.3177 22.2135 25.0764 22.2874 24.8763 22.435C24.8115 22.5072 24.7616 22.5927 24.73 22.6861C24.6983 22.7795 24.6855 22.8787 24.6922 22.9775V23.135H25.2276C25.6626 23.135 25.8801 23.345 25.8801 23.7825C25.8916 23.8742 25.8825 23.9675 25.8535 24.0549C25.8245 24.1422 25.7764 24.2214 25.7131 24.2859C25.6497 24.3505 25.5729 24.3987 25.4886 24.4267C25.4043 24.4548 25.315 24.4619 25.2276 24.4475H24.6922V27.2475C24.7132 27.3665 24.7077 27.489 24.676 27.6055C24.6444 27.7219 24.5876 27.8292 24.5099 27.9189C24.4322 28.0086 24.3358 28.0784 24.2281 28.1228C24.1205 28.1672 24.0045 28.1851 23.8892 28.175Z" fill="#FFEBEE"/>
</svg>
