<svg width="37" height="31" viewBox="0 0 37 31" fill="none" xmlns="http://www.w3.org/2000/svg">
<path d="M25.4375 30.9167H11.5625C10.3359 30.9167 9.15949 30.4294 8.29213 29.562C7.42478 28.6947 6.9375 27.5183 6.9375 26.2917V4.70834C6.9375 3.48172 7.42478 2.30533 8.29213 1.43797C9.15949 0.570619 10.3359 0.0833435 11.5625 0.0833435H21.7221C22.1265 0.0850465 22.5141 0.245613 22.8012 0.530427L29.6154 7.34459C29.9002 7.63175 30.0608 8.01932 30.0625 8.42376V26.2917C30.0625 27.5183 29.5752 28.6947 28.7079 29.562C27.8405 30.4294 26.6641 30.9167 25.4375 30.9167Z" fill="white"/>
<path d="M28.9833 8.93251H23.4333C22.82 8.93251 22.2318 8.68888 21.7981 8.2552C21.3645 7.82152 21.1208 7.23333 21.1208 6.62001V1.07001C21.1202 0.901821 21.1695 0.737229 21.2626 0.597169C21.3558 0.457108 21.4884 0.347907 21.6438 0.283452C21.7992 0.218997 21.9702 0.202201 22.1351 0.235198C22.3 0.268196 22.4514 0.349497 22.57 0.468763L29.5846 7.48335C29.7038 7.60194 29.7851 7.75333 29.8181 7.91825C29.8511 8.08318 29.8343 8.25419 29.7699 8.40954C29.7054 8.56489 29.5962 8.69757 29.4562 8.79069C29.3161 8.88382 29.1515 8.93318 28.9833 8.93251Z" fill="#A2A2A2"/>
<path d="M12.1638 26.4921C12.0569 26.5076 11.9479 26.498 11.8454 26.4639C11.743 26.4299 11.6498 26.3724 11.5735 26.2961C11.4971 26.2197 11.4397 26.1266 11.4056 26.0242C11.3716 25.9217 11.362 25.8127 11.3775 25.7058V21.1888C11.3625 21.0834 11.372 20.9759 11.4052 20.8748C11.4384 20.7736 11.4944 20.6815 11.569 20.6055C11.6435 20.5295 11.7345 20.4716 11.835 20.4364C11.9354 20.4012 12.0427 20.3896 12.1483 20.4025C12.2432 20.3918 12.3392 20.4008 12.4303 20.429C12.5215 20.4571 12.6059 20.5037 12.6783 20.5659C12.7506 20.6281 12.8094 20.7046 12.8508 20.7906C12.8923 20.8765 12.9155 20.9701 12.9192 21.0654C13.0435 20.849 13.232 20.6765 13.4588 20.5721C13.7015 20.4462 13.9716 20.3826 14.245 20.3871C14.5938 20.3822 14.9365 20.4786 15.2317 20.6646C15.5225 20.8588 15.7524 21.1314 15.8946 21.4508C16.0579 21.8334 16.142 22.2451 16.142 22.661C16.142 23.077 16.0579 23.4887 15.8946 23.8713C15.6844 24.2996 15.3168 24.6302 14.8687 24.7939C14.4205 24.9577 13.9264 24.9419 13.4896 24.75C13.271 24.6478 13.0844 24.4879 12.95 24.2875V25.6904C12.9589 25.7966 12.9457 25.9035 12.9112 26.0043C12.8767 26.1052 12.8217 26.1978 12.7496 26.2763C12.6713 26.3496 12.5792 26.4065 12.4785 26.4435C12.3779 26.4806 12.2709 26.4971 12.1638 26.4921ZM13.7054 23.7788C13.8177 23.78 13.9288 23.7556 14.0303 23.7076C14.1318 23.6595 14.2211 23.5889 14.2913 23.5013C14.4631 23.2539 14.5398 22.9528 14.5071 22.6533C14.5384 22.354 14.4618 22.0534 14.2913 21.8054C14.2182 21.7222 14.128 21.6557 14.0269 21.6105C13.9258 21.5653 13.8162 21.5424 13.7054 21.5433C13.5922 21.5412 13.4799 21.5635 13.3762 21.6087C13.2724 21.6539 13.1796 21.721 13.1042 21.8054C12.9416 22.0569 12.8658 22.3547 12.8883 22.6533C12.8635 22.9522 12.9395 23.2507 13.1042 23.5013C13.1805 23.5977 13.2797 23.6735 13.3928 23.722C13.5058 23.7704 13.6292 23.79 13.7517 23.7788H13.7054Z" fill="black"/>
<path d="M18.7621 24.9196C18.4193 24.9325 18.0806 24.8411 17.7908 24.6575C17.4954 24.4643 17.2604 24.1918 17.1125 23.8712C16.9492 23.4887 16.8651 23.077 16.8651 22.661C16.8651 22.2451 16.9492 21.8334 17.1125 21.4508C17.2604 21.1303 17.4954 20.8578 17.7908 20.6646C18.0793 20.4765 18.4178 20.3797 18.7621 20.3871C19.0303 20.3845 19.2951 20.4481 19.5329 20.5721C19.746 20.6687 19.9315 20.8171 20.0725 21.0037V19.3233C20.057 19.2165 20.0666 19.1075 20.1007 19.005C20.1347 18.9025 20.1922 18.8094 20.2685 18.7331C20.3449 18.6567 20.438 18.5992 20.5404 18.5652C20.6429 18.5312 20.7519 18.5216 20.8588 18.5371C20.9625 18.5294 21.0667 18.5432 21.1649 18.5777C21.2631 18.6122 21.353 18.6666 21.4292 18.7375C21.5013 18.816 21.5563 18.9086 21.5908 19.0094C21.6253 19.1102 21.6385 19.2171 21.6296 19.3233V24.1179C21.646 24.3223 21.5804 24.5249 21.4474 24.681C21.3144 24.8372 21.1249 24.9341 20.9204 24.9504C20.8192 24.9585 20.7174 24.9466 20.6208 24.9153C20.5241 24.8841 20.4346 24.8341 20.3573 24.7682C20.2012 24.6352 20.1043 24.4457 20.0879 24.2412C19.9693 24.4566 19.7859 24.6292 19.5638 24.7346C19.3149 24.8588 19.0402 24.9222 18.7621 24.9196ZM19.2708 23.7787C19.3832 23.78 19.4943 23.7556 19.5958 23.7076C19.6973 23.6595 19.7865 23.5889 19.8567 23.5012C20.0353 23.2566 20.1176 22.9548 20.0879 22.6533C20.1147 22.3521 20.0327 22.0513 19.8567 21.8054C19.7836 21.7222 19.6934 21.6557 19.5923 21.6105C19.4912 21.5653 19.3816 21.5424 19.2708 21.5433C19.1599 21.5413 19.05 21.5638 18.9487 21.6091C18.8475 21.6544 18.7574 21.7214 18.685 21.8054C18.509 22.0513 18.427 22.3521 18.4538 22.6533C18.4241 22.9548 18.5064 23.2566 18.685 23.5012C18.7536 23.5907 18.8425 23.6626 18.9444 23.7108C19.0463 23.7591 19.1582 23.7824 19.2708 23.7787Z" fill="black"/>
<path d="M23.9267 24.9042C23.8204 24.9165 23.7128 24.9047 23.6118 24.8695C23.5108 24.8344 23.419 24.7768 23.3434 24.7012C23.2678 24.6256 23.2102 24.5338 23.1751 24.4328C23.1399 24.3318 23.1281 24.2242 23.1404 24.1179V21.6667H22.9092C22.8287 21.6793 22.7463 21.6731 22.6687 21.6484C22.591 21.6237 22.5202 21.5812 22.4618 21.5243C22.4035 21.4674 22.3592 21.3978 22.3324 21.3208C22.3057 21.2438 22.2973 21.1616 22.3079 21.0808C22.3079 20.6954 22.5083 20.5104 22.9092 20.5104H23.125C23.1183 20.2632 23.1612 20.0171 23.2512 19.7867C23.3412 19.5563 23.4766 19.3463 23.6492 19.1692C24.0469 18.8314 24.5461 18.6361 25.0675 18.6142H25.3296C25.4731 18.5567 25.6332 18.5567 25.7767 18.6142C25.8807 18.6735 25.962 18.7657 26.0079 18.8763C26.0307 18.9882 26.0307 19.1035 26.0079 19.2154C25.9901 19.3242 25.942 19.4257 25.8692 19.5083C25.8007 19.5944 25.7009 19.6498 25.5917 19.6625H25.4683C25.2429 19.6524 25.0206 19.7175 24.8362 19.8475C24.7765 19.9111 24.7306 19.9865 24.7014 20.0687C24.6722 20.151 24.6604 20.2384 24.6667 20.3254V20.4642H25.16C25.5608 20.4642 25.7612 20.6492 25.7612 21.0346C25.7718 21.1154 25.7634 21.1975 25.7367 21.2745C25.71 21.3515 25.6657 21.4212 25.6073 21.4781C25.5489 21.5349 25.4781 21.5774 25.4005 21.6021C25.3228 21.6268 25.2405 21.6331 25.16 21.6204H24.6667V24.0871C24.686 24.192 24.6809 24.2999 24.6517 24.4024C24.6226 24.505 24.5702 24.5995 24.4986 24.6785C24.427 24.7576 24.3382 24.819 24.239 24.8582C24.1398 24.8973 24.0329 24.9131 23.9267 24.9042Z" fill="black"/>
</svg>
