<svg width="35" height="35" viewBox="0 0 35 35" fill="none" xmlns="http://www.w3.org/2000/svg">
<g clip-path="url(#clip0_1_333)">
<path d="M17.5 0C7.85076 0 0 7.85076 0 17.5C0 20.3659 0.754869 23.0447 1.979 25.4331L0.0820312 32.2246C-0.359802 33.8026 1.20044 35.3627 2.77881 34.9214L9.57544 33.0244C11.9619 34.246 14.6368 35 17.5 35C27.1492 35 35 27.1492 35 17.5C35 7.85076 27.1492 0 17.5 0ZM17.5 2.625C25.7305 2.625 32.375 9.2695 32.375 17.5C32.375 25.7305 25.7305 32.375 17.5 32.375C14.8736 32.375 12.4168 31.692 10.2744 30.4985C9.97243 30.3302 9.61624 30.2879 9.2832 30.3806L2.81982 32.1836L4.62451 25.7236C4.71774 25.3901 4.67536 25.0332 4.50659 24.7307C3.3107 22.5868 2.625 20.129 2.625 17.5C2.625 9.2695 9.2695 2.625 17.5 2.625ZM11.5852 9.62671C11.3061 9.62671 10.8551 9.73141 10.4709 10.1497C10.0877 10.5662 9.00806 11.5763 9.00806 13.6326C9.00806 15.6888 10.5045 17.6746 10.7136 17.9546C10.9219 18.232 13.6039 22.5877 17.8521 24.2625C21.3818 25.6537 22.0997 25.3766 22.8662 25.3066C23.6327 25.2384 25.3395 24.2973 25.6877 23.3208C26.036 22.3443 26.0362 21.509 25.9338 21.3367C25.8297 21.1625 25.5506 21.057 25.1323 20.8479C24.7149 20.6388 22.6616 19.6284 22.2783 19.4893C21.8951 19.3501 21.6149 19.2795 21.3367 19.6978C21.0584 20.116 20.258 21.0567 20.0139 21.335C19.7698 21.615 19.5264 21.65 19.1082 21.4409C18.689 21.23 17.3443 20.7898 15.7466 19.3662C14.5041 18.2593 13.6682 16.8912 13.4241 16.4729C13.1808 16.0564 13.3978 15.8275 13.6069 15.6201C13.7951 15.4329 14.025 15.1328 14.2341 14.8887C14.4415 14.6445 14.5103 14.4714 14.6494 14.1931C14.7885 13.9157 14.7194 13.6708 14.6152 13.4617C14.5111 13.2525 13.6985 11.185 13.3267 10.3582C13.0143 9.66341 12.6851 9.64834 12.3867 9.63696C12.1435 9.62734 11.8635 9.62671 11.5852 9.62671Z" fill="#2A2A27"/>
</g>
<defs>
<clipPath id="clip0_1_333">
<rect width="35" height="35" fill="white"/>
</clipPath>
</defs>
</svg>
